<svg id="Capa_1" enable-background="new 0 0 512 512" height="512" viewBox="0 0 512 512" width="512" xmlns="http://www.w3.org/2000/svg"><g><path d="m428.5 82.499v-82.499h-280.607l-64.393 64.393v18.106h-68.5v60h15v-45h53.5v234.503h15v-257.002h60v-60h255v332.001h-383.5v-189.502h-15v264.502h203.499v20.729l-12.135 24.27h-55.364c-12.407 0-22.5 10.093-22.5 22.5v22.5h255v-22.5c0-12.407-10.094-22.5-22.5-22.5h-55.364l-12.135-24.27v-20.729h128.5v-15h-392.001v-45h452v45h-44.999v15h59.999v-339.502zm-319.394-22.499 34.393-34.393v34.393zm259.394 429.5v7.5h-225v-7.5c0-4.136 3.364-7.5 7.5-7.5h210c4.136 0 7.5 3.364 7.5 7.5zm-79.634-22.5h-65.732l10.365-20.729v-24.27h45.002v24.27zm139.634-119.999v-249.502h53.5v249.502z"/><path d="m248.5 377.001h15v15h-15z"/><path d="m190.974 99.145-10.607-10.606-26.517 26.516-15.91-15.909-10.607 10.606 26.517 26.516z"/><path d="m153.85 226.267 37.124-37.123-10.607-10.606-26.517 26.516-15.91-15.91-10.607 10.606z"/><path d="m213.164 185.661h151.2v15h-151.2z"/><path d="m213.164 215.661h119.1v15h-119.1z"/><path d="m213.164 275.66h151.2v15h-151.2z"/><path d="m213.164 305.66h119.1v15h-119.1z"/><path d="m213.164 125.662h119.1v15h-119.1z"/><path d="m153.85 316.266 37.124-37.123-10.607-10.607-26.517 26.517-15.91-15.91-10.607 10.607z"/><path d="m213.164 95.662h151.2v15h-151.2z"/><path d="m230.137 45h75v15h-75z"/><path d="m452 112.499h15v15h-15z"/><path d="m452 142.499h15v45h-15z"/></g></svg>